# 3ds Max Wavefront OBJ Exporter v0.97b - (c)2007 guruware
# File Created: 28.05.2015 11:51:58

mtllib bench.mtl

#
# object Plane001
#

v  -30.2237 17.3973 3.6081
v  -30.2237 25.5713 3.6081
v  -30.2237 25.5713 2.2907
v  -30.2237 17.3973 1.4093
v  -30.2237 0.0572 3.6081
v  -30.2237 0.0572 1.4093
v  -29.0344 25.5713 2.2907
v  -29.0344 17.3973 1.4093
v  -29.0344 25.5713 3.6081
v  -29.0344 0.0572 3.6081
v  -29.0344 17.3973 3.6081
v  -29.0344 0.0572 1.4093
v  32.4629 21.7044 1.2264
v  32.4629 21.6369 1.8691
v  32.4629 18.6282 1.5529
v  32.4629 18.6957 0.9102
v  -33.1443 18.6282 1.5529
v  -33.1443 21.6369 1.8691
v  -33.1443 21.7044 1.2264
v  -33.1443 18.6957 0.9102
v  32.4350 18.6005 1.5499
v  -33.1163 18.6004 1.5499
v  -33.1163 18.6680 0.9073
v  32.4350 18.6680 0.9073
v  32.4350 21.6340 1.8968
v  -33.1163 21.6340 1.8968
v  -33.1163 18.6253 1.5806
v  32.4350 18.6253 1.5806
v  32.4350 21.7322 1.2293
v  -33.1163 21.7322 1.2293
v  -33.1163 21.6647 1.8720
v  32.4350 21.6647 1.8720
v  32.4350 18.6987 0.8824
v  -33.1163 18.6987 0.8824
v  -33.1163 21.7073 1.1987
v  32.4350 21.7074 1.1987
v  32.4629 26.0268 1.7118
v  32.4629 25.9592 2.3545
v  32.4629 22.9505 2.0382
v  32.4629 23.0181 1.3956
v  -33.1442 22.9505 2.0382
v  -33.1442 25.9592 2.3545
v  -33.1442 26.0267 1.7118
v  -33.1442 23.0181 1.3956
v  32.4350 22.9228 2.0353
v  -33.1163 22.9227 2.0353
v  -33.1163 22.9903 1.3927
v  32.4350 22.9903 1.3927
v  32.4350 25.9563 2.3822
v  -33.1163 25.9563 2.3822
v  -33.1163 22.9476 2.0660
v  32.4350 22.9476 2.0660
v  32.4350 26.0545 1.7147
v  -33.1163 26.0545 1.7147
v  -33.1163 25.9870 2.3574
v  32.4350 25.9870 2.3574
v  32.4350 23.0210 1.3678
v  -33.1163 23.0210 1.3678
v  -33.1163 26.0297 1.6840
v  32.4350 26.0297 1.6840
v  -32.6195 13.0344 -10.8117
v  31.9298 13.0345 -10.8117
v  31.9298 13.0345 -4.4833
v  -32.6195 13.0344 -4.4833
v  31.9298 14.8706 -4.4833
v  31.9298 14.8706 -10.8117
v  -32.6195 14.8706 -10.8117
v  -32.6195 14.8706 -4.4833
v  31.9298 13.1226 -4.3952
v  31.9298 14.7825 -4.3952
v  -32.6195 14.7825 -4.3952
v  -32.6195 13.1226 -4.3952
v  32.0179 13.1226 -10.8117
v  32.0179 14.7825 -10.8117
v  32.0179 14.7825 -4.4833
v  32.0179 13.1226 -4.4833
v  -32.6195 13.1226 -10.8998
v  -32.6195 14.7825 -10.8998
v  31.9298 14.7825 -10.8998
v  31.9298 13.1226 -10.8998
v  -32.7076 13.1226 -4.4833
v  -32.7076 14.7825 -4.4833
v  -32.7076 14.7825 -10.8117
v  -32.7076 13.1226 -10.8117
v  -30.2238 14.5576 -9.2262
v  -29.0344 14.5576 -9.2262
v  -29.0344 0.0235 -9.2262
v  -30.2238 0.0235 -9.2262
v  -30.2238 0.0235 -6.7558
v  -29.0344 0.0235 -6.7558
v  -29.0344 14.5576 -6.7558
v  -30.2238 14.5576 -6.7558
v  -29.1714 11.0522 -7.0339
v  -29.1714 11.0522 1.7096
v  -29.1714 8.5072 1.7096
v  -29.1714 8.5072 -7.0339
v  -30.0950 8.5072 1.7096
v  -30.0950 11.0522 1.7096
v  -30.0950 11.0522 -7.0339
v  -30.0950 8.5072 -7.0339
v  29.0344 17.3973 3.6081
v  29.0344 25.5713 3.6081
v  29.0344 25.5713 2.2907
v  29.0344 17.3973 1.4093
v  29.0344 0.0572 3.6081
v  29.0344 0.0572 1.4093
v  30.2237 25.5713 2.2907
v  30.2237 17.3973 1.4093
v  30.2237 25.5713 3.6081
v  30.2237 0.0572 3.6081
v  30.2237 17.3973 3.6081
v  30.2237 0.0572 1.4093
v  29.0487 12.1888 1.3533
v  26.5036 12.1888 1.3533
v  26.5036 12.1888 -10.1880
v  29.0487 12.1888 -10.1880
v  29.0487 13.1125 1.3533
v  29.0487 13.1125 -10.1880
v  26.5036 13.1125 1.3533
v  26.5036 13.1125 -10.1880
v  -32.6195 13.0344 -4.2254
v  31.9298 13.0345 -4.2254
v  31.9298 13.0345 2.1030
v  -32.6195 13.0344 2.1030
v  31.9298 14.8706 2.1030
v  31.9298 14.8706 -4.2254
v  -32.6195 14.8706 -4.2254
v  -32.6195 14.8706 2.1030
v  31.9298 13.1226 2.1911
v  31.9298 14.7826 2.1911
v  -32.6195 14.7825 2.1912
v  -32.6195 13.1226 2.1912
v  32.0179 13.1226 -4.2254
v  32.0179 14.7825 -4.2254
v  32.0179 14.7826 2.1030
v  32.0179 13.1226 2.1030
v  -32.6195 13.1226 -4.3136
v  -32.6195 14.7825 -4.3136
v  31.9298 14.7825 -4.3136
v  31.9298 13.1226 -4.3136
v  -32.7076 13.1226 2.1030
v  -32.7076 14.7825 2.1030
v  -32.7076 14.7825 -4.2254
v  -32.7076 13.1226 -4.2254
v  -26.4873 12.1888 1.3533
v  -29.0323 12.1888 1.3533
v  -29.0323 12.1888 -10.1880
v  -26.4873 12.1888 -10.1880
v  -26.4873 13.1125 1.3533
v  -26.4873 13.1125 -10.1880
v  -29.0323 13.1125 1.3533
v  -29.0323 13.1125 -10.1880
v  29.0344 14.5576 -9.2262
v  30.2237 14.5576 -9.2262
v  30.2237 0.0235 -9.2262
v  29.0344 0.0235 -9.2262
v  29.0344 0.0235 -6.7558
v  30.2238 0.0235 -6.7558
v  30.2237 14.5576 -6.7558
v  29.0344 14.5576 -6.7558
v  30.0868 11.0522 -7.0339
v  30.0868 11.0522 1.7095
v  30.0868 8.5072 1.7095
v  30.0868 8.5072 -7.0339
v  29.1632 8.5072 1.7095
v  29.1632 11.0522 1.7095
v  29.1632 11.0522 -7.0339
v  29.1632 8.5072 -7.0339
# 168 vertices

vn -1.0000 0.0000 -0.0000
vn 0.0000 0.1072 -0.9942
vn 0.0000 1.0000 -0.0000
vn 0.0000 0.0000 1.0000
vn 0.0000 0.0000 -1.0000
vn 1.0000 0.0000 -0.0000
vn 0.0000 -0.9945 -0.1045
vn 0.0000 -0.1045 0.9945
vn 0.0000 0.9945 0.1045
vn 0.0000 0.1045 -0.9945
vn 0.5773 -0.5138 -0.6345
vn 0.5773 -0.6345 0.5138
vn 0.5773 0.6345 -0.5138
vn 0.5773 0.5138 0.6345
vn -0.5773 -0.5138 -0.6345
vn -0.5773 -0.6345 0.5138
vn -0.5774 0.6345 -0.5138
vn -0.5773 0.5138 0.6345
vn 0.7071 0.0739 -0.7032
vn 0.7071 0.7032 0.0739
vn 0.7071 -0.0739 0.7032
vn 0.7071 -0.7032 -0.0739
vn -0.7071 -0.7032 -0.0739
vn -0.7071 -0.0739 0.7032
vn -0.7071 0.7032 0.0739
vn -0.7071 0.0739 -0.7032
vn 0.0000 -0.7771 0.6293
vn 0.0000 -0.6293 -0.7771
vn 0.0000 0.6293 0.7771
vn 0.0000 0.7771 -0.6293
vn 0.5773 0.5139 0.6345
vn -0.5773 0.6345 -0.5138
vn -0.5774 0.5139 0.6345
vn 0.0000 0.7772 -0.6293
vn 0.0000 -1.0000 -0.0000
vn -0.5774 -0.5773 0.5773
vn 0.5774 -0.5773 0.5773
vn -0.5774 -0.5773 -0.5773
vn 0.5774 -0.5773 -0.5774
vn -0.5774 0.5773 0.5773
vn 0.5774 0.5773 0.5773
vn -0.5774 0.5773 -0.5773
vn 0.5774 0.5773 -0.5774
vn -0.7071 -0.7071 -0.0000
vn 0.0000 -0.7071 -0.7071
vn 0.7071 -0.7071 -0.0000
vn 0.0000 -0.7071 0.7071
vn 0.0000 0.7071 0.7071
vn 0.7071 0.7071 -0.0000
vn 0.0000 0.7071 -0.7071
vn -0.7071 0.7071 -0.0000
vn 0.7071 0.0000 0.7071
vn -0.7071 0.0000 0.7071
vn 0.7071 0.0000 -0.7071
vn -0.7071 0.0000 -0.7071
vn 0.5774 -0.5773 -0.5773
vn 0.5774 0.5773 -0.5773
# 57 vertex normals

vt 0.2881 0.5722 0.0000
vt 0.4070 0.5715 0.0000
vt 0.4071 0.5907 0.0000
vt 0.2881 0.6042 0.0000
vt 0.0357 0.5708 0.0000
vt 0.0356 0.6028 0.0000
vt 0.4085 0.5176 0.0000
vt 0.4069 0.5349 0.0000
vt 0.2880 0.5230 0.0000
vt 0.2889 0.5058 0.0000
vt 0.4070 0.5542 0.0000
vt 0.4262 0.5542 0.0000
vt 0.4262 0.5715 0.0000
vt 0.0357 0.5535 0.0000
vt 0.2881 0.5549 0.0000
vt 0.0359 0.5214 0.0000
vt 0.0361 0.5041 0.0000
vt 0.9810 0.3067 0.0000
vt 0.9716 0.3067 0.0000
vt 0.9716 0.2628 0.0000
vt 0.9810 0.2628 0.0000
vt 0.0168 0.2628 0.0000
vt 0.0168 0.3067 0.0000
vt 0.0075 0.3067 0.0000
vt 0.0075 0.2628 0.0000
vt 0.9711 0.2621 0.0000
vt 0.0174 0.2621 0.0000
vt 0.0174 0.2527 0.0000
vt 0.9711 0.2527 0.0000
vt 0.9711 0.3068 0.0000
vt 0.0174 0.3068 0.0000
vt 0.0174 0.2627 0.0000
vt 0.9711 0.2627 0.0000
vt 0.9711 0.3168 0.0000
vt 0.0174 0.3167 0.0000
vt 0.0174 0.3073 0.0000
vt 0.9711 0.3073 0.0000
vt 0.9711 0.3613 0.0000
vt 0.0174 0.3613 0.0000
vt 0.0174 0.3173 0.0000
vt 0.9711 0.3173 0.0000
vt 0.9811 0.2622 0.0000
vt 0.9815 0.2627 0.0000
vt 0.9716 0.2622 0.0000
vt 0.9815 0.3068 0.0000
vt 0.9811 0.3073 0.0000
vt 0.9716 0.3073 0.0000
vt 0.0074 0.2622 0.0000
vt 0.0069 0.2627 0.0000
vt 0.0169 0.2622 0.0000
vt 0.0069 0.3068 0.0000
vt 0.0074 0.3073 0.0000
vt 0.0169 0.3073 0.0000
vt 0.9711 0.3619 0.0000
vt 0.0174 0.3619 0.0000
vt 0.9810 0.9317 0.0000
vt 0.9716 0.9317 0.0000
vt 0.9716 0.8878 0.0000
vt 0.9810 0.8878 0.0000
vt 0.0168 0.8878 0.0000
vt 0.0168 0.9317 0.0000
vt 0.0075 0.9317 0.0000
vt 0.0075 0.8878 0.0000
vt 0.9711 0.8871 0.0000
vt 0.0174 0.8871 0.0000
vt 0.0174 0.8777 0.0000
vt 0.9711 0.8777 0.0000
vt 0.9711 0.9318 0.0000
vt 0.0174 0.9318 0.0000
vt 0.0174 0.8877 0.0000
vt 0.9711 0.8877 0.0000
vt 0.9711 0.9418 0.0000
vt 0.0174 0.9417 0.0000
vt 0.0174 0.9323 0.0000
vt 0.9711 0.9323 0.0000
vt 0.9711 0.9863 0.0000
vt 0.0174 0.9863 0.0000
vt 0.0174 0.9423 0.0000
vt 0.9711 0.9423 0.0000
vt 0.9811 0.8872 0.0000
vt 0.9815 0.8877 0.0000
vt 0.9716 0.8872 0.0000
vt 0.9815 0.9318 0.0000
vt 0.9811 0.9323 0.0000
vt 0.9716 0.9323 0.0000
vt 0.0074 0.8872 0.0000
vt 0.0069 0.8877 0.0000
vt 0.0169 0.8872 0.0000
vt 0.0069 0.9318 0.0000
vt 0.0074 0.9323 0.0000
vt 0.0169 0.9323 0.0000
vt 0.9711 0.9869 0.0000
vt 0.0174 0.9869 0.0000
vt 0.0306 0.1507 0.0000
vt 0.9698 0.1507 0.0000
vt 0.9698 0.2428 0.0000
vt 0.0306 0.2428 0.0000
vt 0.9698 0.0307 0.0000
vt 0.9698 0.1230 0.0000
vt 0.0306 0.1230 0.0000
vt 0.0306 0.0307 0.0000
vt 0.9698 0.0048 0.0000
vt 0.9698 0.0289 0.0000
vt 0.0306 0.0289 0.0000
vt 0.0306 0.0048 0.0000
vt 0.9955 0.1228 0.0000
vt 0.9715 0.1228 0.0000
vt 0.9715 0.0309 0.0000
vt 0.9955 0.0309 0.0000
vt 0.0306 0.1489 0.0000
vt 0.0306 0.1248 0.0000
vt 0.9698 0.1248 0.0000
vt 0.9698 0.1489 0.0000
vt 0.0049 0.0309 0.0000
vt 0.0289 0.0309 0.0000
vt 0.0289 0.1228 0.0000
vt 0.0049 0.1228 0.0000
vt 0.0047 0.0292 0.0000
vt 0.0032 0.0307 0.0000
vt 0.9972 0.0307 0.0000
vt 0.9957 0.0292 0.0000
vt 0.0047 0.1245 0.0000
vt 0.0032 0.1230 0.0000
vt 0.9972 0.1230 0.0000
vt 0.9957 0.1245 0.0000
vt 0.0291 0.0292 0.0000
vt 0.9712 0.0292 0.0000
vt 0.0291 0.1245 0.0000
vt 0.9712 0.1245 0.0000
vt 0.0306 0.0029 0.0000
vt 0.9698 0.0029 0.0000
vt 0.9660 0.4330 0.0000
vt 0.9660 0.4503 0.0000
vt 0.7545 0.4503 0.0000
vt 0.7545 0.4330 0.0000
vt 0.7545 0.3970 0.0000
vt 0.7545 0.3797 0.0000
vt 0.9660 0.3797 0.0000
vt 0.9660 0.3970 0.0000
vt 0.9660 0.4862 0.0000
vt 0.7545 0.4862 0.0000
vt 0.7273 0.5984 0.0000
vt 0.6001 0.5984 0.0000
vt 0.6001 0.5613 0.0000
vt 0.7273 0.5613 0.0000
vt 0.6001 0.5479 0.0000
vt 0.6001 0.5108 0.0000
vt 0.7273 0.5108 0.0000
vt 0.7273 0.5479 0.0000
vt 0.7273 0.6118 0.0000
vt 0.6001 0.6118 0.0000
vt 0.2881 0.4501 0.0000
vt 0.4070 0.4494 0.0000
vt 0.4071 0.4686 0.0000
vt 0.2881 0.4821 0.0000
vt 0.0357 0.4487 0.0000
vt 0.0356 0.4808 0.0000
vt 0.4085 0.3955 0.0000
vt 0.4068 0.4128 0.0000
vt 0.2880 0.4009 0.0000
vt 0.2889 0.3837 0.0000
vt 0.4070 0.4321 0.0000
vt 0.4262 0.4321 0.0000
vt 0.4262 0.4494 0.0000
vt 0.0357 0.4314 0.0000
vt 0.2881 0.4328 0.0000
vt 0.0359 0.3994 0.0000
vt 0.0361 0.3820 0.0000
vt 0.6187 0.3807 0.0000
vt 0.6187 0.4177 0.0000
vt 0.4507 0.4177 0.0000
vt 0.4507 0.3807 0.0000
vt 0.6187 0.3672 0.0000
vt 0.4507 0.3672 0.0000
vt 0.6321 0.4177 0.0000
vt 0.6321 0.3807 0.0000
vt 0.4507 0.4311 0.0000
vt 0.6187 0.4311 0.0000
vt 0.4373 0.3807 0.0000
vt 0.4373 0.4177 0.0000
vt 0.0306 0.7660 0.0000
vt 0.9698 0.7660 0.0000
vt 0.9698 0.8581 0.0000
vt 0.0306 0.8581 0.0000
vt 0.9698 0.6460 0.0000
vt 0.9698 0.7382 0.0000
vt 0.0306 0.7382 0.0000
vt 0.0306 0.6460 0.0000
vt 0.9698 0.6200 0.0000
vt 0.9698 0.6441 0.0000
vt 0.0306 0.6441 0.0000
vt 0.0306 0.6200 0.0000
vt 0.9955 0.7380 0.0000
vt 0.9715 0.7380 0.0000
vt 0.9715 0.6461 0.0000
vt 0.9955 0.6461 0.0000
vt 0.0306 0.7642 0.0000
vt 0.0306 0.7400 0.0000
vt 0.9698 0.7400 0.0000
vt 0.9698 0.7642 0.0000
vt 0.0049 0.6461 0.0000
vt 0.0289 0.6461 0.0000
vt 0.0289 0.7380 0.0000
vt 0.0049 0.7380 0.0000
vt 0.0047 0.6444 0.0000
vt 0.0032 0.6459 0.0000
vt 0.9972 0.6459 0.0000
vt 0.9957 0.6444 0.0000
vt 0.0047 0.7398 0.0000
vt 0.0032 0.7383 0.0000
vt 0.9972 0.7383 0.0000
vt 0.9957 0.7397 0.0000
vt 0.0291 0.6444 0.0000
vt 0.9712 0.6444 0.0000
vt 0.0291 0.7397 0.0000
vt 0.9712 0.7397 0.0000
vt 0.0306 0.6182 0.0000
vt 0.9698 0.6182 0.0000
vt 0.6160 0.4496 0.0000
vt 0.6160 0.4866 0.0000
vt 0.4480 0.4866 0.0000
vt 0.4480 0.4496 0.0000
vt 0.6160 0.4361 0.0000
vt 0.4480 0.4361 0.0000
vt 0.6294 0.4866 0.0000
vt 0.6294 0.4496 0.0000
vt 0.4480 0.5000 0.0000
vt 0.6160 0.5000 0.0000
vt 0.4346 0.4496 0.0000
vt 0.4346 0.4866 0.0000
vt 0.9660 0.5522 0.0000
vt 0.9660 0.5695 0.0000
vt 0.7545 0.5695 0.0000
vt 0.7545 0.5522 0.0000
vt 0.7545 0.5162 0.0000
vt 0.7545 0.4989 0.0000
vt 0.9660 0.4989 0.0000
vt 0.9660 0.5162 0.0000
vt 0.9660 0.6054 0.0000
vt 0.7545 0.6054 0.0000
vt 0.5862 0.5978 0.0000
vt 0.4589 0.5978 0.0000
vt 0.4589 0.5608 0.0000
vt 0.5862 0.5608 0.0000
vt 0.4589 0.5473 0.0000
vt 0.4589 0.5103 0.0000
vt 0.5862 0.5103 0.0000
vt 0.5862 0.5473 0.0000
vt 0.5862 0.6112 0.0000
vt 0.4589 0.6112 0.0000
# 250 texture coords

g Plane001
usemtl 13___Default
s 1
f 1/1/1 2/2/1 3/3/1 
f 3/3/1 4/4/1 1/1/1 
f 5/5/1 1/1/1 4/4/1 
f 4/4/1 6/6/1 5/5/1 
s off
f 3/7/2 7/8/2 8/9/2 
f 8/9/2 4/10/2 3/7/2 
f 2/2/3 9/11/3 7/12/3 
f 7/12/3 3/13/3 2/2/3 
f 5/5/4 10/14/4 11/15/4 
f 11/15/4 1/1/4 5/5/4 
f 4/10/5 8/9/5 12/16/5 
f 12/16/5 6/17/5 4/10/5 
f 1/1/4 11/15/4 9/11/4 
f 9/11/4 2/2/4 1/1/4 
f 7/8/6 9/11/6 11/15/6 
f 11/15/6 8/9/6 7/8/6 
f 12/16/6 8/9/6 11/15/6 
f 11/15/6 10/14/6 12/16/6 
s 2
f 13/18/6 14/19/6 15/20/6 
f 15/20/6 16/21/6 13/18/6 
s 4
f 17/22/1 18/23/1 19/24/1 
f 19/24/1 20/25/1 17/22/1 
s 8
f 21/26/7 22/27/7 23/28/7 
f 23/28/7 24/29/7 21/26/7 
s 16
f 25/30/8 26/31/8 27/32/8 
f 27/32/8 28/33/8 25/30/8 
s 32
f 29/34/9 30/35/9 31/36/9 
f 31/36/9 32/37/9 29/34/9 
s 64
f 33/38/10 34/39/10 35/40/10 
f 35/40/10 36/41/10 33/38/10 
s off
f 24/42/11 33/43/11 16/21/11 
f 15/20/12 28/33/12 21/44/12 
f 36/45/13 29/46/13 13/18/13 
f 14/19/14 32/47/14 25/30/14 
f 23/48/15 20/25/15 34/49/15 
f 27/32/16 17/22/16 22/50/16 
f 35/51/17 19/24/17 30/52/17 
f 31/53/18 18/23/18 26/31/18 
f 33/43/19 36/45/19 13/18/19 
f 13/18/19 16/21/19 33/43/19 
f 29/46/20 32/47/20 14/19/20 
f 14/19/20 13/18/20 29/46/20 
f 25/30/21 28/33/21 15/20/21 
f 15/20/21 14/19/21 25/30/21 
f 21/44/22 24/42/22 16/21/22 
f 16/21/22 15/20/22 21/44/22 
f 23/48/23 22/50/23 17/22/23 
f 17/22/23 20/25/23 23/48/23 
f 27/32/24 26/31/24 18/23/24 
f 18/23/24 17/22/24 27/32/24 
f 31/53/25 30/52/25 19/24/25 
f 19/24/25 18/23/25 31/53/25 
f 35/51/26 34/49/26 20/25/26 
f 20/25/26 19/24/26 35/51/26 
f 28/33/27 27/32/27 22/27/27 
f 22/27/27 21/26/27 28/33/27 
f 34/39/28 33/38/28 24/54/28 
f 24/54/28 23/55/28 34/39/28 
f 32/37/29 31/36/29 26/31/29 
f 26/31/29 25/30/29 32/37/29 
f 36/41/30 35/40/30 30/35/30 
f 30/35/30 29/34/30 36/41/30 
s 2
f 37/56/6 38/57/6 39/58/6 
f 39/58/6 40/59/6 37/56/6 
s 4
f 41/60/1 42/61/1 43/62/1 
f 43/62/1 44/63/1 41/60/1 
s 8
f 45/64/7 46/65/7 47/66/7 
f 47/66/7 48/67/7 45/64/7 
s 16
f 49/68/8 50/69/8 51/70/8 
f 51/70/8 52/71/8 49/68/8 
s 32
f 53/72/9 54/73/9 55/74/9 
f 55/74/9 56/75/9 53/72/9 
s 64
f 57/76/10 58/77/10 59/78/10 
f 59/78/10 60/79/10 57/76/10 
s off
f 48/80/11 57/81/11 40/59/11 
f 39/58/12 52/71/12 45/82/12 
f 60/83/13 53/84/13 37/56/13 
f 38/57/31 56/85/31 49/68/31 
f 47/86/15 44/63/15 58/87/15 
f 51/70/16 41/60/16 46/88/16 
f 59/89/32 43/62/32 54/90/32 
f 55/91/33 42/61/33 50/69/33 
f 57/81/19 60/83/19 37/56/19 
f 37/56/19 40/59/19 57/81/19 
f 53/84/20 56/85/20 38/57/20 
f 38/57/20 37/56/20 53/84/20 
f 49/68/21 52/71/21 39/58/21 
f 39/58/21 38/57/21 49/68/21 
f 45/82/22 48/80/22 40/59/22 
f 40/59/22 39/58/22 45/82/22 
f 47/86/23 46/88/23 41/60/23 
f 41/60/23 44/63/23 47/86/23 
f 51/70/24 50/69/24 42/61/24 
f 42/61/24 41/60/24 51/70/24 
f 55/91/25 54/90/25 43/62/25 
f 43/62/25 42/61/25 55/91/25 
f 59/89/26 58/87/26 44/63/26 
f 44/63/26 43/62/26 59/89/26 
f 52/71/27 51/70/27 46/65/27 
f 46/65/27 45/64/27 52/71/27 
f 58/77/28 57/76/28 48/92/28 
f 48/92/28 47/93/28 58/77/28 
f 56/75/29 55/74/29 50/69/29 
f 50/69/29 49/68/29 56/75/29 
f 60/79/34 59/78/34 54/73/34 
f 54/73/34 53/72/34 60/79/34 
f 61/94/35 62/95/35 63/96/35 
f 63/96/35 64/97/35 61/94/35 
f 65/98/3 66/99/3 67/100/3 
f 67/100/3 68/101/3 65/98/3 
f 69/102/4 70/103/4 71/104/4 
f 71/104/4 72/105/4 69/102/4 
f 73/106/6 74/107/6 75/108/6 
f 75/108/6 76/109/6 73/106/6 
f 77/110/5 78/111/5 79/112/5 
f 79/112/5 80/113/5 77/110/5 
f 81/114/1 82/115/1 83/116/1 
f 83/116/1 84/117/1 81/114/1 
f 72/118/36 81/114/36 64/119/36 
f 63/120/37 76/109/37 69/121/37 
f 84/117/38 77/122/38 61/123/38 
f 62/124/39 80/125/39 73/106/39 
f 71/126/40 68/101/40 82/115/40 
f 75/108/41 65/98/41 70/127/41 
f 83/116/42 67/100/42 78/128/42 
f 79/129/43 66/99/43 74/107/43 
f 81/114/44 84/117/44 61/123/44 
f 61/123/44 64/119/44 81/114/44 
f 77/110/45 80/113/45 62/95/45 
f 62/95/45 61/94/45 77/110/45 
f 73/106/46 76/109/46 63/120/46 
f 63/120/46 62/124/46 73/106/46 
f 69/102/47 72/105/47 64/130/47 
f 64/130/47 63/131/47 69/102/47 
f 71/104/48 70/103/48 65/98/48 
f 65/98/48 68/101/48 71/104/48 
f 75/108/49 74/107/49 66/99/49 
f 66/99/49 65/98/49 75/108/49 
f 79/112/50 78/111/50 67/100/50 
f 67/100/50 66/99/50 79/112/50 
f 83/116/51 82/115/51 68/101/51 
f 68/101/51 67/100/51 83/116/51 
f 76/109/52 75/108/52 70/127/52 
f 70/127/52 69/121/52 76/109/52 
f 82/115/53 81/114/53 72/118/53 
f 72/118/53 71/126/53 82/115/53 
f 80/125/54 79/129/54 74/107/54 
f 74/107/54 73/106/54 80/125/54 
f 84/117/55 83/116/55 78/128/55 
f 78/128/55 77/122/55 84/117/55 
s 4
f 85/132/5 86/133/5 87/134/5 
f 87/134/5 88/135/5 85/132/5 
f 89/136/4 90/137/4 91/138/4 
f 91/138/4 92/139/4 89/136/4 
s 16
f 86/133/6 91/140/6 90/141/6 
f 90/141/6 87/134/6 86/133/6 
f 85/132/1 88/135/1 89/136/1 
f 89/136/1 92/139/1 85/132/1 
s 2
f 93/142/6 94/143/6 95/144/6 
f 95/144/6 96/145/6 93/142/6 
s 4
f 97/146/1 98/147/1 99/148/1 
f 99/148/1 100/149/1 97/146/1 
s 8
f 95/144/35 97/146/35 100/149/35 
f 100/149/35 96/145/35 95/144/35 
s 32
f 93/142/3 99/150/3 98/151/3 
f 98/151/3 94/143/3 93/142/3 
s 1
f 101/152/1 102/153/1 103/154/1 
f 103/154/1 104/155/1 101/152/1 
f 105/156/1 101/152/1 104/155/1 
f 104/155/1 106/157/1 105/156/1 
s off
f 103/158/2 107/159/2 108/160/2 
f 108/160/2 104/161/2 103/158/2 
f 102/153/3 109/162/3 107/163/3 
f 107/163/3 103/164/3 102/153/3 
f 105/156/4 110/165/4 111/166/4 
f 111/166/4 101/152/4 105/156/4 
f 104/161/5 108/160/5 112/167/5 
f 112/167/5 106/168/5 104/161/5 
f 101/152/4 111/166/4 109/162/4 
f 109/162/4 102/153/4 101/152/4 
f 107/159/6 109/162/6 111/166/6 
f 111/166/6 108/160/6 107/159/6 
f 112/167/6 108/160/6 111/166/6 
f 111/166/6 110/165/6 112/167/6 
s 4
f 113/169/35 114/170/35 115/171/35 
f 115/171/35 116/172/35 113/169/35 
s 8
f 117/173/6 113/169/6 116/172/6 
f 116/172/6 118/174/6 117/173/6 
s 16
f 119/175/4 114/170/4 113/169/4 
f 113/169/4 117/176/4 119/175/4 
s 32
f 120/177/1 115/171/1 114/170/1 
f 114/170/1 119/178/1 120/177/1 
s 64
f 118/179/5 116/172/5 115/171/5 
f 115/171/5 120/180/5 118/179/5 
s off
f 121/181/35 122/182/35 123/183/35 
f 123/183/35 124/184/35 121/181/35 
f 125/185/3 126/186/3 127/187/3 
f 127/187/3 128/188/3 125/185/3 
f 129/189/4 130/190/4 131/191/4 
f 131/191/4 132/192/4 129/189/4 
f 133/193/6 134/194/6 135/195/6 
f 135/195/6 136/196/6 133/193/6 
f 137/197/5 138/198/5 139/199/5 
f 139/199/5 140/200/5 137/197/5 
f 141/201/1 142/202/1 143/203/1 
f 143/203/1 144/204/1 141/201/1 
f 132/205/36 141/201/36 124/206/36 
f 123/207/37 136/196/37 129/208/37 
f 144/204/38 137/209/38 121/210/38 
f 122/211/56 140/212/56 133/193/56 
f 131/213/40 128/188/40 142/202/40 
f 135/195/41 125/185/41 130/214/41 
f 143/203/42 127/187/42 138/215/42 
f 139/216/57 126/186/57 134/194/57 
f 141/201/44 144/204/44 121/210/44 
f 121/210/44 124/206/44 141/201/44 
f 137/197/45 140/200/45 122/182/45 
f 122/182/45 121/181/45 137/197/45 
f 133/193/46 136/196/46 123/207/46 
f 123/207/46 122/211/46 133/193/46 
f 129/189/47 132/192/47 124/217/47 
f 124/217/47 123/218/47 129/189/47 
f 131/191/48 130/190/48 125/185/48 
f 125/185/48 128/188/48 131/191/48 
f 135/195/49 134/194/49 126/186/49 
f 126/186/49 125/185/49 135/195/49 
f 139/199/50 138/198/50 127/187/50 
f 127/187/50 126/186/50 139/199/50 
f 143/203/51 142/202/51 128/188/51 
f 128/188/51 127/187/51 143/203/51 
f 136/196/52 135/195/52 130/214/52 
f 130/214/52 129/208/52 136/196/52 
f 142/202/53 141/201/53 132/205/53 
f 132/205/53 131/213/53 142/202/53 
f 140/212/54 139/216/54 134/194/54 
f 134/194/54 133/193/54 140/212/54 
f 144/204/55 143/203/55 138/215/55 
f 138/215/55 137/209/55 144/204/55 
s 4
f 145/219/35 146/220/35 147/221/35 
f 147/221/35 148/222/35 145/219/35 
s 8
f 149/223/6 145/219/6 148/222/6 
f 148/222/6 150/224/6 149/223/6 
s 16
f 151/225/4 146/220/4 145/219/4 
f 145/219/4 149/226/4 151/225/4 
s 32
f 152/227/1 147/221/1 146/220/1 
f 146/220/1 151/228/1 152/227/1 
s 64
f 150/229/5 148/222/5 147/221/5 
f 147/221/5 152/230/5 150/229/5 
s 4
f 153/231/5 154/232/5 155/233/5 
f 155/233/5 156/234/5 153/231/5 
f 157/235/4 158/236/4 159/237/4 
f 159/237/4 160/238/4 157/235/4 
s 16
f 154/232/6 159/239/6 158/240/6 
f 158/240/6 155/233/6 154/232/6 
f 153/231/1 156/234/1 157/235/1 
f 157/235/1 160/238/1 153/231/1 
s 2
f 161/241/6 162/242/6 163/243/6 
f 163/243/6 164/244/6 161/241/6 
s 4
f 165/245/1 166/246/1 167/247/1 
f 167/247/1 168/248/1 165/245/1 
s 8
f 163/243/35 165/245/35 168/248/35 
f 168/248/35 164/244/35 163/243/35 
s 32
f 161/241/3 167/249/3 166/250/3 
f 166/250/3 162/242/3 161/241/3 
# 264 faces

